<svg xmlns="http://www.w3.org/2000/svg" xmlns:xlink="http://www.w3.org/1999/xlink" viewBox="0 0 329.05 285.26"><defs><style>.cls-1,.cls-4,.cls-5,.cls-6,.cls-7{fill:none;}.cls-2{fill:#333;}.cls-3{clip-path:url(#clip-path);}.cls-4,.cls-5,.cls-6,.cls-7{stroke:#000;stroke-linecap:round;stroke-linejoin:round;}.cls-4{stroke-width:3.47px;}.cls-5{stroke-width:3.4px;}.cls-6{stroke-width:3.26px;}.cls-7{stroke-width:4.38px;}</style><clipPath id="clip-path" transform="translate(-338.25 -396.29)"><rect class="cls-1" width="1024" height="1024"/></clipPath></defs><g id="Layer_2" data-name="Layer 2"><g id="Livello_1" data-name="Livello 1"><polygon class="cls-2" points="86.22 284.81 86.22 266.71 90.92 266.71 99.61 277.77 99.61 266.71 104.29 266.71 104.29 284.81 99.61 284.81 90.92 273.74 90.92 284.81 86.22 284.81"/><path class="cls-2" d="M445.44,674.83a5.94,5.94,0,0,1,.56-2.55,6.34,6.34,0,0,1,1.53-2.07,7.54,7.54,0,0,1,2.34-1.38,9.07,9.07,0,0,1,5.91,0,7.49,7.49,0,0,1,2.35,1.37,6.17,6.17,0,0,1,1.55,2.09,6.5,6.5,0,0,1,.55,2.67,6.22,6.22,0,0,1-.57,2.68,6.38,6.38,0,0,1-1.54,2.09,7.05,7.05,0,0,1-2.37,1.35,9,9,0,0,1-3,.48,8.6,8.6,0,0,1-2.92-.48,6.77,6.77,0,0,1-2.32-1.36,6.24,6.24,0,0,1-1.52-2.13A6.62,6.62,0,0,1,445.44,674.83Zm4.59,0a2.64,2.64,0,0,0,.23,1.14,2.84,2.84,0,0,0,.6.9,2.46,2.46,0,0,0,.88.6,2.84,2.84,0,0,0,2.19,0,2.59,2.59,0,0,0,.89-.6,3.22,3.22,0,0,0,.6-.9,2.89,2.89,0,0,0,0-2.21,3.54,3.54,0,0,0-.6-.9,2.88,2.88,0,0,0-3.08-.6,2.75,2.75,0,0,0-.88.6,3.17,3.17,0,0,0-.6.89A2.5,2.5,0,0,0,450,674.88Z" transform="translate(-338.25 -396.29)"/><path class="cls-2" d="M462.72,668.79h4.35v2a5,5,0,0,1,1.7-1.69,4.61,4.61,0,0,1,2.35-.59h.38a2.79,2.79,0,0,1,.46.05v4.15a4.08,4.08,0,0,0-1.87-.43,2.8,2.8,0,0,0-2.27.9,4,4,0,0,0-.75,2.63v5.28h-4.35Z" transform="translate(-338.25 -396.29)"/><polygon class="cls-2" points="140.48 276.12 140.48 284.81 136.14 284.81 136.14 276.12 134.7 276.12 134.7 272.5 136.14 272.5 136.14 268.8 140.48 268.8 140.48 272.5 142.95 272.5 142.95 276.12 140.48 276.12"/><path class="cls-2" d="M482.84,661.18h4.34v9.17a4.77,4.77,0,0,1,1.8-1.46,5.81,5.81,0,0,1,2.14-.37,4.53,4.53,0,0,1,3.51,1.29,4.9,4.9,0,0,1,1.19,3.46v7.83h-4.34v-6.22a6.17,6.17,0,0,0-.15-1.51,1.7,1.7,0,0,0-.48-.89,2.06,2.06,0,0,0-1.39-.5,2.13,2.13,0,0,0-1.69.66,2.75,2.75,0,0,0-.59,1.88v6.58h-4.34Z" transform="translate(-338.25 -396.29)"/><path class="cls-2" d="M502.68,675.67c0,1.88.88,2.81,2.64,2.81a2.35,2.35,0,0,0,2.14-1.15h4.2c-.85,2.82-3,4.22-6.36,4.22a8.45,8.45,0,0,1-2.86-.46,6.53,6.53,0,0,1-2.22-1.34,5.85,5.85,0,0,1-1.42-2.06,6.83,6.83,0,0,1-.51-2.69,7.59,7.59,0,0,1,.48-2.77,5.78,5.78,0,0,1,3.52-3.43,8.17,8.17,0,0,1,2.84-.47,8,8,0,0,1,2.81.47,5.63,5.63,0,0,1,2.11,1.35,5.85,5.85,0,0,1,1.32,2.18,8.43,8.43,0,0,1,.46,2.89v.45Zm5.09-2.52a2.61,2.61,0,0,0-.89-1.46,2.75,2.75,0,0,0-3.27,0,2.38,2.38,0,0,0-.81,1.48Z" transform="translate(-338.25 -396.29)"/><path class="cls-2" d="M523.8,668.79h4.37V681.1H523.8v-1.37a4.53,4.53,0,0,1-3.76,1.75,6.13,6.13,0,0,1-2.48-.49,6,6,0,0,1-2-1.38,6.33,6.33,0,0,1-1.31-2.09,7.16,7.16,0,0,1-.47-2.61,6.82,6.82,0,0,1,.46-2.51,6.29,6.29,0,0,1,1.27-2.08,5.92,5.92,0,0,1,1.94-1.4,5.86,5.86,0,0,1,2.5-.52A5,5,0,0,1,523.8,670Zm-5.47,6.12a2.72,2.72,0,0,0,.22,1.11,2.66,2.66,0,0,0,.59.9,2.46,2.46,0,0,0,.88.6,2.8,2.8,0,0,0,1.12.22,2.69,2.69,0,0,0,1.09-.22,2.5,2.5,0,0,0,.89-.6,2.91,2.91,0,0,0,.6-.89A2.58,2.58,0,0,0,524,675a2.73,2.73,0,0,0-.23-1.09,3.08,3.08,0,0,0-.6-.9,2.79,2.79,0,0,0-.89-.6,2.86,2.86,0,0,0-1.09-.21,3,3,0,0,0-1.12.21,2.75,2.75,0,0,0-.88.6,2.89,2.89,0,0,0-.59.88A2.53,2.53,0,0,0,518.33,674.91Z" transform="translate(-338.25 -396.29)"/><path class="cls-2" d="M539.28,672a5.13,5.13,0,0,0-2.35-.62,1.76,1.76,0,0,0-1,.24.74.74,0,0,0-.37.65.88.88,0,0,0,.06.35.69.69,0,0,0,.26.25,2.28,2.28,0,0,0,.6.21c.27.07.61.15,1,.24a4.93,4.93,0,0,1,2.68,1.29,3.22,3.22,0,0,1,.89,2.36,4.3,4.3,0,0,1-.43,2,4.21,4.21,0,0,1-1.2,1.45,5.81,5.81,0,0,1-1.85.91,8.09,8.09,0,0,1-2.37.32,9.65,9.65,0,0,1-4.92-1.41l1.58-3.07a6.2,6.2,0,0,0,3.46,1.24,1.67,1.67,0,0,0,1-.26.78.78,0,0,0,.38-.67,1.16,1.16,0,0,0-.06-.4.66.66,0,0,0-.25-.29,2.58,2.58,0,0,0-.56-.24c-.25-.07-.57-.14-1-.22A5.55,5.55,0,0,1,532.1,675a3,3,0,0,1-.81-2.22,4.36,4.36,0,0,1,.39-1.86,3.75,3.75,0,0,1,1.1-1.4,5.29,5.29,0,0,1,1.74-.89,7.69,7.69,0,0,1,2.27-.31,10.25,10.25,0,0,1,4,.79Z" transform="translate(-338.25 -396.29)"/><polygon class="cls-2" points="209.94 276.12 209.94 284.81 205.59 284.81 205.59 276.12 204.15 276.12 204.15 272.5 205.59 272.5 205.59 268.8 209.94 268.8 209.94 272.5 212.41 272.5 212.41 276.12 209.94 276.12"/><path class="cls-2" d="M556.2,675.67c0,1.88.88,2.81,2.64,2.81a2.35,2.35,0,0,0,2.14-1.15h4.2c-.85,2.82-3,4.22-6.36,4.22a8.45,8.45,0,0,1-2.86-.46,6.53,6.53,0,0,1-2.22-1.34,5.85,5.85,0,0,1-1.42-2.06,6.83,6.83,0,0,1-.51-2.69,7.59,7.59,0,0,1,.48-2.77,5.78,5.78,0,0,1,3.52-3.43,8.17,8.17,0,0,1,2.84-.47,8,8,0,0,1,2.81.47,5.63,5.63,0,0,1,2.11,1.35,5.85,5.85,0,0,1,1.32,2.18,8.43,8.43,0,0,1,.46,2.89v.45Zm5.09-2.52a2.61,2.61,0,0,0-.89-1.46,2.75,2.75,0,0,0-3.27,0,2.38,2.38,0,0,0-.81,1.48Z" transform="translate(-338.25 -396.29)"/><path class="cls-2" d="M567.82,668.79h4.34v2a5.11,5.11,0,0,1,1.71-1.69,4.58,4.58,0,0,1,2.35-.59h.37a2.9,2.9,0,0,1,.47.05v4.15a4.11,4.11,0,0,0-1.87-.43,2.79,2.79,0,0,0-2.27.9,4,4,0,0,0-.76,2.63v5.28h-4.34Z" transform="translate(-338.25 -396.29)"/><path class="cls-2" d="M579,668.79h4.34v1.56a4.93,4.93,0,0,1,1.8-1.46,5.81,5.81,0,0,1,2.14-.37,5.36,5.36,0,0,1,2.22.42,4.4,4.4,0,0,1,1.57,1.19,3.49,3.49,0,0,1,.72,1.39,7.16,7.16,0,0,1,.19,1.75v7.83h-4.34v-6.22a6.48,6.48,0,0,0-.13-1.47,1.84,1.84,0,0,0-.47-.9,1.56,1.56,0,0,0-.65-.41,2.39,2.39,0,0,0-.77-.12,2.15,2.15,0,0,0-1.69.66,2.75,2.75,0,0,0-.59,1.88v6.58H579Z" transform="translate(-338.25 -396.29)"/><polygon class="cls-2" points="89.05 226.96 95.15 240.11 101.35 226.96 111.45 226.96 98.1 252.61 92.05 252.61 78.85 226.96 89.05 226.96"/><path class="cls-2" d="M452.21,613.4a4.9,4.9,0,0,1,.4-2,5,5,0,0,1,1.1-1.62,5.06,5.06,0,0,1,5.57-1.1,5,5,0,0,1,1.63,1.1,5.34,5.34,0,0,1,1.1,1.62,5.07,5.07,0,0,1,.4,2,5,5,0,0,1-.4,2,5.16,5.16,0,0,1-2.73,2.73,5.08,5.08,0,0,1-3.95,0,5.22,5.22,0,0,1-1.62-1.1,5,5,0,0,1-1.1-1.63A4.82,4.82,0,0,1,452.21,613.4Zm9.65,9.85V648.9h-9.05V623.25Z" transform="translate(-338.25 -396.29)"/><path class="cls-2" d="M485.06,629.85a10.55,10.55,0,0,0-4.9-1.3,3.64,3.64,0,0,0-2,.5,1.52,1.52,0,0,0-.77,1.35,1.8,1.8,0,0,0,.12.72,1.28,1.28,0,0,0,.55.53,5.25,5.25,0,0,0,1.25.45l2.18.5a10.44,10.44,0,0,1,5.6,2.67,6.85,6.85,0,0,1,1.85,4.93,8.93,8.93,0,0,1-.9,4,8.61,8.61,0,0,1-2.5,3,11.85,11.85,0,0,1-3.85,1.9,17.17,17.17,0,0,1-5,.68,20.15,20.15,0,0,1-10.25-3l3.3-6.4a12.9,12.9,0,0,0,7.2,2.6,3.62,3.62,0,0,0,2.05-.55,1.66,1.66,0,0,0,.8-1.4,2.41,2.41,0,0,0-.13-.83,1.42,1.42,0,0,0-.52-.6,4.33,4.33,0,0,0-1.18-.5c-.52-.15-1.19-.31-2-.47q-4.2-.86-5.88-2.53a6.22,6.22,0,0,1-1.67-4.62,9,9,0,0,1,.8-3.88,8,8,0,0,1,2.3-2.92,10.66,10.66,0,0,1,3.62-1.85,15.91,15.91,0,0,1,4.73-.65,21.46,21.46,0,0,1,8.25,1.65Z" transform="translate(-338.25 -396.29)"/><rect class="cls-2" x="172.25" y="211.11" width="9.05" height="41.5"/><path class="cls-2" d="M545.56,623.25h9.1V648.9h-9.1v-2.85a9.51,9.51,0,0,1-7.85,3.65,12.6,12.6,0,0,1-5.15-1,12.3,12.3,0,0,1-4.1-2.87,13.37,13.37,0,0,1-2.73-4.35,14.91,14.91,0,0,1-1-5.45,14.31,14.31,0,0,1,1-5.23,13.2,13.2,0,0,1,2.65-4.32,12.27,12.27,0,0,1,9.25-4,10.42,10.42,0,0,1,7.95,3.35ZM534.16,636a6,6,0,0,0,1.67,4.2,5.55,5.55,0,0,0,1.85,1.25,6,6,0,0,0,2.33.45,5.82,5.82,0,0,0,2.27-.45,5.55,5.55,0,0,0,1.85-1.25,6.56,6.56,0,0,0,1.25-1.85,5.35,5.35,0,0,0,.48-2.25,5.55,5.55,0,0,0-.48-2.28,6.38,6.38,0,0,0-1.25-1.87,5.4,5.4,0,0,0-1.85-1.25,5.82,5.82,0,0,0-2.27-.45,6,6,0,0,0-2.33.45,5.4,5.4,0,0,0-1.85,1.25,6.06,6.06,0,0,0-1.22,1.82A5.52,5.52,0,0,0,534.16,636Z" transform="translate(-338.25 -396.29)"/><path class="cls-2" d="M569.86,607.4v18.4a10.58,10.58,0,0,1,8-3.35,12.39,12.39,0,0,1,9.27,4,13.48,13.48,0,0,1,2.63,4.3,15.12,15.12,0,0,1,0,10.63A13.51,13.51,0,0,1,587,645.7a13,13,0,0,1-4.13,2.92,12.21,12.21,0,0,1-5.12,1.08,9.54,9.54,0,0,1-7.9-3.65v2.85h-9.05V607.4Zm11.4,28.75a5.84,5.84,0,0,0-1.7-4.15,6.25,6.25,0,0,0-1.85-1.28,5.86,5.86,0,0,0-4.55,0,5.52,5.52,0,0,0-1.83,1.25,6.38,6.38,0,0,0-1.25,1.87,5.54,5.54,0,0,0-.47,2.28,5.65,5.65,0,0,0,.45,2.25,5.38,5.38,0,0,0,1.25,1.82,6.07,6.07,0,0,0,1.87,1.25,5.55,5.55,0,0,0,2.28.48,5.6,5.6,0,0,0,4.07-1.7,6.56,6.56,0,0,0,1.25-1.85A5.25,5.25,0,0,0,581.26,636.15Z" transform="translate(-338.25 -396.29)"/><g class="cls-3"><path class="cls-4" d="M387.11,424.4c-.33,0,6.1,0,9.51,3.23s2.89,9.84,7,12.92,10.54,2.62,13.82,7-2.79,12.36-3.41,16.69c-1.12,7.83-1.54,15,2.69,22.07,4,6.63,13.07,14.48,20.11,17.3,2.83,1.13,9.54,5.29,11.65,7.4,2.55,2.55,4.07,8.35,4.48,10.82,2.59,15.51-17.76,12.38-24.94,19.56-4.25,4.25.51,20,2.87,24.75,3.42,6.83,9.18,14.72,16.69,16.59,1.32.33,5.7.93,7-.37.75-.75,1.27-4.67,1.07-5.63-.36-1.79-.83-4.41-2-5.92-2.2-2.93-8.87-7.15-4.13-10.95,2.33-1.86,10-2.87,21.35-7s23.33-21.42,23.33-24.58" transform="translate(-338.25 -396.29)"/><path class="cls-5" d="M479.33,447.72c.37,0-6.52-3.87-8.44-5A88.39,88.39,0,0,1,454,430c-6.58-6.58-12.88-12.83-21.71-16.14-6.27-2.36-13.32-1.89-19.38-4.31-5.22-2.09-7.64-10.39-13.09-11.48-2.28-.46-2.34,3.46-2.34,5,0,.08.06.72-.17.72-.41,0-3-4.52-3.77-3.77s.25,10.25.54,11.66c.13.67,1.6,3.26,1.25,3.77-2.84,4.27-7.89,7.71-10.58,12.2-3.12,5.2-2.36,10.34-6.28,15.25-3,3.75-15.64,11.36-16.33,12.74-2.26,4.52,5.53,13.58,9.69,14.17,4.67.67,10.52-.91,15.24-1.43a22.31,22.31,0,0,1,8.08.71c8.43,2.11,12,20.24,14.89,27.45,1.09,2.72,6.85,11.39,6.28,13.64C413.57,521.29,404.1,532.22,395,539c-2.81,2.12-8.13,6.51-16.14,12.74s-11.84,9.87-19.74,13.28c-6.32,2.73-11.42,7.27-16.68,11.48-2.44,2-3.59,4.67-1.08,7.18,5.16,5.15,14,2.52,19.38-.18,5.92-3,12.48-4.78,18.47-7.18,7.4-3,15.15-6.65,23.15-8.25,2.48-.5,3.63-2.67,5.56-4,3-2,6.17-4.92,9.33-6.64,3.95-2.15,8.81-2.61,8.25-2.33" transform="translate(-338.25 -396.29)"/><path class="cls-6" d="M403.26,412.56c7.14,3.57.54-6.1-.9-7.54" transform="translate(-338.25 -396.29)"/><path class="cls-6" d="M386.39,437.86c2.56-1.71,5.72.43,8.07,1.61.78.39,3.42.9,3.05,1.08" transform="translate(-338.25 -396.29)"/><path class="cls-6" d="M391.86,441.36c1.23-3.43-2.67,2.35-2.24,2.78.94.93,3.15-2.08,3.59-2.52a7,7,0,0,1,2.51-1.07s-2,1.26-3.05,1.79c-.36.18-1.05.94-1.08.54A4,4,0,0,1,391.86,441.36Z" transform="translate(-338.25 -396.29)"/><polyline class="cls-6" points="143.73 53.31 195.02 77.19 219.44 75.02 233.56 57.38"/><polyline class="cls-6" points="219.99 75.29 253.64 68.78 268.02 48.7 265.85 30.79"/><polyline class="cls-6" points="252.55 70.14 290.82 48.97 295.98 32.69"/><polyline class="cls-6" points="254.72 68.51 275.35 99.72 305.75 118.72 326.37 113.02"/><polyline class="cls-6" points="291.63 80.18 276.17 99.18 236.27 97.28 207.5 101.08 190.68 98.63 166.52 94.29 136.94 84.79 112.79 87.23"/><polyline class="cls-6" points="292.72 95.65 276.71 98.91 270.47 132.29 283.22 140.43 299.5 143.14"/><polyline class="cls-6" points="298.69 163.5 284.31 140.43 273.45 150.74 280.51 161.87"/><polyline class="cls-6" points="287.83 186.56 259.34 170.01 244.41 150.74 273.45 150.47"/><polyline class="cls-6" points="260.7 184.66 233.83 177.34 243.87 151.01 269.92 133.37 243.87 122.52 237.36 98.91 253.37 70.41"/><polyline class="cls-6" points="234.1 177.06 221.62 161.32 243.33 150.74 212.93 146.67 171.95 157.25 157.57 160.78 138.03 154.54"/><polyline class="cls-6" points="221.89 161.05 212.93 147.75 215.37 130.11 244.14 121.7 229.49 147.75"/><polyline class="cls-6" points="220.8 75.02 206.69 100.53 214.83 129.3 187.42 122.52 212.39 145.58"/><polyline class="cls-6" points="149.97 143.41 172.5 155.63 187.15 122.52 157.3 132.01 146.71 117.36"/><polyline class="cls-6" points="143.19 52.5 164.9 93.48 186.06 121.43 206.15 101.08"/><polyline class="cls-6" points="186.88 121.43 191.22 98.91 218.9 75.29"/><line class="cls-6" x1="195.02" y1="76.92" x2="166.52" y2="93.21"/><line class="cls-6" x1="136.94" y1="84.79" x2="129.89" y2="71.22"/><line class="cls-6" x1="233.83" y1="177.61" x2="259.88" y2="169.74"/><path d="M447.84,483.85A2.52,2.52,0,0,1,450,481.1a2.49,2.49,0,0,1,2.69,2.16,2.53,2.53,0,0,1-2.11,2.75A2.49,2.49,0,0,1,447.84,483.85Z" transform="translate(-338.25 -396.29)"/><path class="cls-7" d="M466.39,467.73a1.84,1.84,0,0,1,1.54-2,1.82,1.82,0,0,1,2,1.58,1.84,1.84,0,0,1-1.54,2A1.81,1.81,0,0,1,466.39,467.73Z" transform="translate(-338.25 -396.29)"/><path d="M489.44,528.41a5,5,0,0,1,4.2-5.48,4.94,4.94,0,0,1,5.35,4.3,5,5,0,0,1-4.2,5.48A5,5,0,0,1,489.44,528.41Z" transform="translate(-338.25 -396.29)"/><path d="M481.45,512.84a2.51,2.51,0,0,1,2.11-2.75,2.47,2.47,0,0,1,2.68,2.15,2.41,2.41,0,1,1-4.79.6Z" transform="translate(-338.25 -396.29)"/><path d="M500.05,490a4,4,0,0,1,3.32-4.34,3.91,3.91,0,0,1,4.24,3.4,4,4,0,0,1-3.32,4.34A3.92,3.92,0,0,1,500.05,490Z" transform="translate(-338.25 -396.29)"/><path d="M477.89,448.82a4.29,4.29,0,0,0,3.59,4.7,4.25,4.25,0,0,0,4.59-3.68,4.3,4.3,0,0,0-3.6-4.7A4.24,4.24,0,0,0,477.89,448.82Z" transform="translate(-338.25 -396.29)"/><path d="M529,472.71a4.12,4.12,0,1,0,4.58-3.68A4.23,4.23,0,0,0,529,472.71Z" transform="translate(-338.25 -396.29)"/><path d="M505.21,552.08a4.79,4.79,0,0,0,4,5.23,4.72,4.72,0,0,0,5.1-4.1,4.77,4.77,0,0,0-4-5.22A4.71,4.71,0,0,0,505.21,552.08Z" transform="translate(-338.25 -396.29)"/><path d="M520.85,518.57a4.78,4.78,0,0,0,4,5.23,4.73,4.73,0,0,0,5.11-4.1,4.79,4.79,0,0,0-4-5.23A4.72,4.72,0,0,0,520.85,518.57Z" transform="translate(-338.25 -396.29)"/><path d="M577.7,546a4.78,4.78,0,0,0,4,5.22,4.71,4.71,0,0,0,5.1-4.09,4.79,4.79,0,0,0-4-5.23A4.73,4.73,0,0,0,577.7,546Z" transform="translate(-338.25 -396.29)"/><path d="M578.65,517.9a3.8,3.8,0,0,0,3.17,4.14,3.74,3.74,0,0,0,4-3.25,3.78,3.78,0,0,0-3.17-4.13A3.73,3.73,0,0,0,578.65,517.9Z" transform="translate(-338.25 -396.29)"/><path d="M627.45,476.14a2.79,2.79,0,0,0,2.34,3.05,2.74,2.74,0,0,0,3-2.39,2.79,2.79,0,0,0-2.34-3.05A2.75,2.75,0,0,0,627.45,476.14Z" transform="translate(-338.25 -396.29)"/><path d="M628.84,491.42a4.15,4.15,0,0,0,3.47,4.54,4.11,4.11,0,0,0,4.44-3.56,4.17,4.17,0,0,0-3.48-4.54A4.1,4.1,0,0,0,628.84,491.42Z" transform="translate(-338.25 -396.29)"/><path d="M662,509a2.8,2.8,0,0,0,2.34,3,2.76,2.76,0,0,0,3-2.39,2.81,2.81,0,0,0-2.34-3.06A2.77,2.77,0,0,0,662,509Z" transform="translate(-338.25 -396.29)"/><path d="M637,539.13a2.8,2.8,0,0,0,2.34,3.06,2.76,2.76,0,0,0,3-2.4,2.79,2.79,0,0,0-2.34-3A2.75,2.75,0,0,0,637,539.13Z" transform="translate(-338.25 -396.29)"/><path d="M635.1,560.57a2.68,2.68,0,1,0,3-2.39A2.74,2.74,0,0,0,635.1,560.57Z" transform="translate(-338.25 -396.29)"/><path d="M616.83,559.46a2.8,2.8,0,0,0,2.34,3,2.77,2.77,0,0,0,3-2.39,2.81,2.81,0,0,0-2.34-3.06A2.77,2.77,0,0,0,616.83,559.46Z" transform="translate(-338.25 -396.29)"/><path d="M618.76,537.24a3.59,3.59,0,0,0,3,3.93,3.54,3.54,0,0,0,3.83-3.08,3.59,3.59,0,0,0-3-3.92A3.54,3.54,0,0,0,618.76,537.24Z" transform="translate(-338.25 -396.29)"/><path d="M593.92,565.63a3.59,3.59,0,0,0,3,3.92,3.55,3.55,0,0,0,3.83-3.07,3.61,3.61,0,0,0-3-3.93A3.55,3.55,0,0,0,593.92,565.63Z" transform="translate(-338.25 -396.29)"/><path d="M623.82,582.82a2.81,2.81,0,0,0,2.34,3.06,2.74,2.74,0,1,0-2.34-3.06Z" transform="translate(-338.25 -396.29)"/><path d="M597.36,580.63a2.79,2.79,0,0,0,2.34,3,2.76,2.76,0,0,0,3-2.39,2.8,2.8,0,0,0-2.34-3.06A2.76,2.76,0,0,0,597.36,580.63Z" transform="translate(-338.25 -396.29)"/><path d="M569.62,573.06a3.58,3.58,0,0,0,3,3.92,3.53,3.53,0,0,0,3.83-3.07,3.58,3.58,0,0,0-3-3.92A3.53,3.53,0,0,0,569.62,573.06Z" transform="translate(-338.25 -396.29)"/><path d="M557.18,557a3.59,3.59,0,0,0,3,3.92A3.54,3.54,0,0,0,564,557.8a3.6,3.6,0,0,0-3-3.92A3.54,3.54,0,0,0,557.18,557Z" transform="translate(-338.25 -396.29)"/><path d="M604.4,528.84a3.58,3.58,0,0,0,3,3.92,3.54,3.54,0,0,0,3.83-3.08,3.59,3.59,0,0,0-3-3.92A3.54,3.54,0,0,0,604.4,528.84Z" transform="translate(-338.25 -396.29)"/><path d="M629.8,428.42a4.69,4.69,0,0,0,3.92,5.13,4.63,4.63,0,0,0,5-4,4.7,4.7,0,0,0-3.93-5.13A4.63,4.63,0,0,0,629.8,428.42Z" transform="translate(-338.25 -396.29)"/><ellipse cx="266.12" cy="29.94" rx="2.68" ry="2.74"/><path d="M569.61,453.22a2.8,2.8,0,0,0,2.34,3,2.76,2.76,0,0,0,3-2.39,2.81,2.81,0,0,0-2.34-3.06A2.77,2.77,0,0,0,569.61,453.22Z" transform="translate(-338.25 -396.29)"/><path d="M588.42,463.74a4.78,4.78,0,0,0,4,5.22,4.71,4.71,0,0,0,5.1-4.09,4.79,4.79,0,0,0-4-5.23A4.73,4.73,0,0,0,588.42,463.74Z" transform="translate(-338.25 -396.29)"/><path d="M572.87,493a3.78,3.78,0,0,0,3.17,4.13,3.73,3.73,0,0,0,4-3.24,3.8,3.8,0,0,0-3.17-4.14A3.75,3.75,0,0,0,572.87,493Z" transform="translate(-338.25 -396.29)"/><path d="M609.59,494.09a4.8,4.8,0,0,0,4,5.23,4.72,4.72,0,0,0,5.1-4.1,4.78,4.78,0,0,0-4-5.23A4.73,4.73,0,0,0,609.59,494.09Z" transform="translate(-338.25 -396.29)"/><path d="M541.17,497.1a4.3,4.3,0,0,0,3.59,4.7,4.24,4.24,0,0,0,4.59-3.68,4.29,4.29,0,0,0-3.59-4.7A4.25,4.25,0,0,0,541.17,497.1Z" transform="translate(-338.25 -396.29)"/><path d="M554.15,471.22a4.29,4.29,0,0,0,3.59,4.7,4.25,4.25,0,0,0,4.59-3.68,4.31,4.31,0,0,0-3.59-4.7A4.24,4.24,0,0,0,554.15,471.22Z" transform="translate(-338.25 -396.29)"/><ellipse cx="215.4" cy="129.45" rx="4.59" ry="4.7"/><path d="M493.68,557.05A2.8,2.8,0,0,0,496,560.1a2.76,2.76,0,0,0,3-2.39,2.81,2.81,0,0,0-2.34-3.06A2.77,2.77,0,0,0,493.68,557.05Z" transform="translate(-338.25 -396.29)"/></g></g></g></svg>